<?xml version="1.0" encoding="UTF-8" standalone="no"?>
<!-- Created with Inkscape (http://www.inkscape.org/) -->
<svg
   xmlns:dc="http://purl.org/dc/elements/1.1/"
   xmlns:cc="http://web.resource.org/cc/"
   xmlns:rdf="http://www.w3.org/1999/02/22-rdf-syntax-ns#"
   xmlns:svg="http://www.w3.org/2000/svg"
   xmlns="http://www.w3.org/2000/svg"
   xmlns:xlink="http://www.w3.org/1999/xlink"
   xmlns:sodipodi="http://sodipodi.sourceforge.net/DTD/sodipodi-0.dtd"
   xmlns:inkscape="http://www.inkscape.org/namespaces/inkscape"
   width="744.09448819"
   height="1052.3622047"
   id="svg2"
   sodipodi:version="0.32"
   inkscape:version="0.44.1"
   sodipodi:docbase="C:\Documents and Settings\peblin\Desktop"
   sodipodi:docname="fyrbultsväggen.svg"
   inkscape:export-filename="c:\Documents and Settings\Peblin\Desktop\fyrbultsväggen.png"
   inkscape:export-xdpi="85.300003"
   inkscape:export-ydpi="85.300003">
  <defs
     id="defs4" />
  <sodipodi:namedview
     id="base"
     pagecolor="white"
     bordercolor="#666666"
     borderopacity="1.0"
     gridtolerance="10000"
     guidetolerance="10"
     objecttolerance="10"
     inkscape:pageopacity="1"
     inkscape:pageshadow="2"
     inkscape:zoom="1.8874602"
     inkscape:cx="349.13003"
     inkscape:cy="788.0385"
     inkscape:document-units="px"
     inkscape:current-layer="layer2"
     inkscape:window-width="1280"
     inkscape:window-height="802"
     inkscape:window-x="14"
     inkscape:window-y="90" />
  <metadata
     id="metadata7">
    <rdf:RDF>
      <cc:Work
         rdf:about="">
        <dc:format>image/svg+xml</dc:format>
        <dc:type
           rdf:resource="http://purl.org/dc/dcmitype/StillImage" />
      </cc:Work>
    </rdf:RDF>
  </metadata>
  <g
     inkscape:label="Layer 1"
     id="layer1"
     inkscape:groupmode="layer">
    <path
       style="opacity:1;fill:none;fill-opacity:1;stroke:white;stroke-width:1.01450109;stroke-linejoin:round;stroke-miterlimit:4;stroke-dasharray:4.05800452, 1.01450113;stroke-dashoffset:0;stroke-opacity:1"
       d="M 201.35752,343.30963 C 201.35752,342.5985 201.35752,336.68549 201.35752,333.16462 C 201.35752,330.10501 201.35752,327.0454 201.35752,323.9858 C 201.35752,321.40929 201.35752,318.83278 201.35752,316.25626 C 201.35752,312.54144 203.54424,310.92515 205.70538,308.04364 C 208.03764,304.93395 209.68275,302.02127 211.50253,298.38172 C 213.28122,294.82434 213.12698,291.22565 213.91801,287.27052 C 214.7646,283.03755 215.78546,277.73846 217.78277,273.74384 C 219.58789,270.13361 221.17344,265.01212 222.13063,261.18335 C 223.08577,257.36282 224.58496,253.78154 225.5123,250.07214 C 226.3501,246.72096 225.5123,241.95524 225.5123,238.47784 C 225.5123,235.35854 227.50815,233.03686 228.89397,230.26522 C 230.03878,227.9756 231.61531,225.78873 232.75874,223.50187 C 234.48725,220.04487 237.07772,216.5692 238.55589,212.87377 C 240.12968,208.93928 240.96482,205.65354 241.93756,201.76257 C 243.31276,196.26177 242.90375,190.55207 242.90375,184.85421 C 242.90375,181.3493 243.38685,178.21557 243.38685,174.7092 C 243.38685,173.58198 243.38685,172.45476 243.38685,171.32753"
       id="path16354" />
  </g>
  <g
     inkscape:label="Linjer"
     id="layer2"
     inkscape:groupmode="layer">
    <path
       style="fill:#f9f9f9;fill-rule:evenodd;stroke:black;stroke-width:0.2;stroke-linecap:butt;stroke-linejoin:miter;stroke-opacity:1;stroke-miterlimit:4;stroke-dasharray:none"
       d="M 475.17576,366.11505 C 476.50496,366.11505 480.17194,366.11505 482.60038,366.11505 C 485.36596,366.11505 487.98716,366.4686 490.73211,366.4686 C 493.56053,366.4686 496.38896,366.4686 499.21739,366.4686 C 503.11624,366.4686 506.93911,368.23637 510.88465,368.23637 C 513.94878,368.23637 517.01291,368.23637 520.07704,368.23637 C 523.25902,368.23637 526.441,368.23637 529.62298,368.23637 C 532.45141,368.23637 535.27983,368.23637 538.10826,368.23637 C 540.81884,368.23637 543.52941,368.23637 546.23999,368.23637 C 548.61199,368.23637 556.01616,368.44398 558.26081,367.88282 C 565.55755,367.50178 567.82837,367.55124 574.52426,365.05439 C 574.76509,349.78091 575.42099,347.50134 568.16031,331.46683 C 566.39254,331.46683 562.14989,331.11327 560.38212,331.11327 C 558.61436,331.11327 556.84659,331.11327 555.07882,331.11327 C 553.02994,331.11327 551.56585,331.37279 549.77552,331.82037 C 548.13111,332.23148 545.81181,331.82037 544.11867,331.82037 C 542.3509,331.82037 540.58313,331.82037 538.81537,331.82037 C 537.0476,331.82037 535.27983,331.82037 533.51207,331.82037 C 532.33563,331.82037 529.28232,334.8159 528.56232,335.35591 C 526.9962,336.53049 525.5454,337.3947 523.96613,338.18433 C 522.15238,339.0912 520.74926,340.68537 519.36993,341.71987 C 517.81491,342.88613 515.76341,343.98282 514.06663,345.2554 C 512.75722,346.23746 511.17927,346.87586 509.47044,347.73027 C 507.54917,348.69091 507.00358,349.49804 504.52069,349.49804 C 502.75844,349.49804 500.86859,349.90988 499.57094,350.5587 C 497.57132,351.55851 496.07403,353.3485 494.62119,354.80134 C 493.12883,356.2937 490.72074,357.81223 488.96434,358.69043 C 487.65785,359.34368 485.7271,362.06395 485.07525,362.93307 C 483.71279,364.74969 481.87367,364.70084 479.77195,364.70084 C 477.55021,364.70084 477.13111,364.55077 475.17576,366.11505 z "
       id="path3937"
       sodipodi:nodetypes="csssssssscccsssssssssssssssssc" />
    <path
       style="fill:#e6e6e6;fill-opacity:1;stroke:#003000;stroke-width:0.50725055;stroke-linejoin:round;stroke-miterlimit:4;stroke-dasharray:none;stroke-dashoffset:0;stroke-opacity:1"
       d="M 327.75327,356.71269 C 325.98219,354.89162 322.00797,351.08128 319.63726,347.92034 C 316.00034,343.07111 315.57926,338.60235 315.57926,332.70283 C 315.57926,328.0812 315.57926,323.45959 315.57926,318.83797 C 315.57926,311.05216 317.94643,303.63656 317.94643,295.84262 C 317.94643,288.47786 317.95258,280.61278 321.3281,273.86176 C 326.53815,263.44166 328.57287,251.25622 333.84028,240.72139 C 337.98056,232.44082 341.80457,219.65088 343.30896,210.62452 C 344.36882,204.26537 348.16525,198.63899 349.73413,192.3635 C 349.98618,191.35528 350.18502,190.3345 350.41046,189.32 C 352.32018,180.7263 356.38911,171.72223 359.20281,163.28114 C 360.32784,159.90605 362.86404,156.41407 363.59898,153.47429 C 364.02057,151.78792 369.66338,149.22695 371.03865,148.40179 C 373.66936,146.82336 376.75413,145.56105 379.831,144.68195 C 380.41467,144.51518 380.95823,144.23106 381.52183,144.00561 C 384.62484,142.76441 388.07198,142.31478 391.32868,142.31478 C 394.48491,142.31478 397.64112,142.31478 400.79735,142.31478 C 403.95358,142.31478 407.1098,142.31478 410.26603,142.31478 C 414.88764,142.31478 419.50927,142.31478 424.13088,142.31478 C 428.63978,142.31478 433.14866,142.31478 437.65756,142.31478 C 439.95263,142.31478 442.58143,143.79937 444.75907,144.34378 C 447.93762,145.13842 451.43626,145.02011 454.90408,145.02011 C 458.39848,145.02011 461.89286,145.02011 465.38726,145.02011 C 467.88543,145.02011 470.26628,144.68195 472.82693,144.68195 C 475.19064,144.68195 477.77641,144.88179 479.92844,144.34378 C 482.37265,143.73273 486.31988,144.00561 488.72078,144.00561 C 492.2223,144.00561 495.004,142.47999 498.52763,141.97661 C 503.69242,141.23878 508.80645,140.96211 514.08331,140.96211 C 535.16166,139.78597 527.05463,141.53878 543.45873,145.26752 C 545.60046,145.26752 555.68935,143.67808 556.77146,155.86377 C 557.01,158.55004 559.3067,167.11784 559.05953,168.35364 C 558.74894,169.90661 560.07403,172.26137 560.07403,174.10248 C 560.07403,176.24421 560.07403,178.38593 560.07403,180.52765 C 560.07403,183.34571 560.07403,186.16377 560.07403,188.98183 C 560.07403,191.11277 560.29884,192.13678 561.08853,193.71617 C 561.99692,195.53294 564.81035,197.77682 565.82287,199.12684 C 566.91999,200.58966 567.17554,203.00417 567.17554,204.87568 C 567.17554,207.06321 568.0482,208.70448 568.52821,210.62452 C 569.06047,212.75353 569.44599,214.53714 569.88088,216.71153 C 570.23078,218.46107 569.88088,220.67308 569.88088,222.46037 C 569.88088,224.37665 569.88088,226.29293 569.88088,228.20921 C 569.88088,230.57638 569.88088,232.94355 569.88088,235.31071 C 569.88088,237.56516 569.88088,239.81961 569.88088,242.07406 C 569.88088,244.3285 569.88088,246.58295 569.88088,248.8374 C 569.88088,251.80993 571.23354,254.71233 571.23354,257.96791 C 571.23354,260.71302 571.57171,263.61052 571.57171,266.42208 C 571.57171,270.14192 571.57171,273.86176 571.57171,277.5816 C 571.57171,281.6396 571.57171,285.6976 571.57171,289.75561 C 571.57171,295.09865 569.54271,300.69356 569.54271,305.64946 C 569.54271,309.88873 568.86637,314.03294 568.86637,318.16164 C 568.86637,321.94693 568.52821,325.82911 568.52821,329.65932 C 568.52821,333.94277 526.93366,333.49187 526.93366,337.77533 C 487.88962,366.09998 475.72528,368.21447 451.18424,366.8577 C 444.96249,365.96888 438.30693,366.00553 432.24689,364.49053 C 427.22294,363.23454 422.13603,363.14469 417.02937,362.12336 C 411.21474,360.96044 405.38976,360.43252 399.44469,360.43252 C 395.11664,360.43252 390.48985,361.44703 385.918,361.44703 C 378.97198,361.44703 372.16367,360.77069 365.28981,360.77069 C 358.68582,360.77069 351.12246,361.04836 344.66162,359.75619 C 340.73442,358.97075 336.51626,358.98798 332.82578,358.06535 C 331.06616,357.62545 329.43307,357.38461 327.75327,356.71269 z "
       id="path18165"
       sodipodi:nodetypes="cssssssssssssssssssssssssssccssssssssssssssssssssssccsssssssc" />
    <g
       id="g3747"
       transform="matrix(0.169084,0,0,0.169084,168.9901,175.5175)">
      <image
         y="-424.20926"
         x="-335.78574"
         sodipodi:absref="http://www.sverigeforaren.se/images/a/a2/Fyrbultsvaggen.jpg"
         id="image1897"
         xlink:href="http://www.sverigeforaren.se/images/a/a2/Fyrbultsvaggen.jpg"
         height="1898.8572"
         width="1126.9792" />
      <path
         style="fill:none;fill-rule:evenodd;stroke:#fffff2;stroke-width:6;stroke-linecap:butt;stroke-linejoin:round;stroke-miterlimit:4;stroke-dasharray:none;stroke-opacity:1"
         id="path2859"
         d="M 5.7142857,1169.505 C 15.291333,1142.0866 20,1115.9478 20,1086.6479 C 20,1065.6955 20,1044.7431 20,1023.7908 C 20,999.98123 20,976.17171 20,952.36218 C 20,936.17171 20,919.98123 20,903.79075 C 20,889.50504 20,875.21933 20,860.93361 C 20,844.50353 14.285714,834.84844 14.285714,818.07647 C 14.285714,800.78317 11.975414,783.66782 8.5714286,766.6479 C 4.9151114,748.36631 8.5714286,725.37835 8.5714286,706.6479 C 8.5714286,690.33205 8.3728086,677.67923 2.8571429,666.6479 C -6.4742049,647.9852 -48.137599,669.28812 -60,675.21933 C -81.170412,685.80453 -97.620326,699.66547 -111.42857,718.07647 C -121.11514,730.99189 -136.27929,734.78754 -148.57143,740.93361 C -166.62681,749.9613 -160,716.99157 -160,700.93361 C -160,679.52651 -153.53436,660.78535 -148.57143,640.93361 C -143.60531,621.06914 -133.05091,603.331 -128.57143,580.93361 C -124.1873,559.01295 -120,534.69021 -120,512.36218 C -120,490.54568 -109.62874,474.79159 -105.71429,455.21933 C -102.18323,437.56405 -88.282493,427.932 -74.285714,420.93361 C -49.626504,408.60401 -26.368062,396.75445 0,380.93361 C 24.045235,366.50647 53.622136,358.74005 71.428571,340.93361 C 77.141553,335.22063 85.734454,333.77563 91.428571,329.50504" />
    </g>
    <path
       style="fill:none;fill-rule:evenodd;stroke:white;stroke-width:1.35266817;stroke-linecap:butt;stroke-linejoin:miter;stroke-miterlimit:4;stroke-dasharray:4.05800452, 1.35266817;stroke-dashoffset:0;stroke-opacity:1"
       d="M 142.41983,383.40657 C 142.70212,379.11523 143.42607,374.38796 142.41983,370.36299 C 141.78026,367.80469 142.41983,364.31809 142.41983,361.66727 C 142.41983,357.80251 142.41983,353.93773 142.41983,350.07297 C 142.41983,345.24202 142.41983,340.41105 142.41983,335.5801 C 142.41983,332.57452 144.50531,329.47675 145.8015,326.88437 C 147.1115,324.26437 147.54246,320.59959 148.70008,317.70555 C 150.26329,313.79752 151.54655,309.88445 154.01413,306.59435 C 156.57749,303.17653 157.78755,298.85165 159.32818,295.00005 C 161.39604,289.83042 164.95179,285.72274 166.09152,280.02408 C 166.84884,276.23748 166.57462,272.30427 166.57462,268.42978 C 166.57462,265.37018 166.57462,262.31057 166.57462,259.25096 C 166.57462,255.93598 168.48807,252.98966 170.92248,250.55524 C 173.30116,248.17656 175.81286,246.04204 178.16892,244.27499 C 181.01881,242.13758 184.10659,240.33123 184.93226,237.02856 C 185.41441,235.09996 185.54448,233.00126 185.89845,231.23141 C 190.33261,226.30633 195.80975,225.52774 200.87442,223.50187 C 203.42773,222.48055 205.14517,220.70611 206.67157,218.67092 C 208.56974,216.14002 211.785,214.52368 213.91801,212.39067 C 217.61934,208.68934 221.7825,205.60841 225.02921,201.27947 C 228.54915,196.58622 232.02142,192.73621 234.20803,187.26969 C 235.62615,183.72438 238.00842,180.75322 240.00518,178.09087 C 241.64022,175.91082 242.36676,173.52938 242.90375,170.84444 C 243.49505,167.88794 245.23793,166.17609 246.28542,164.0811 C 247.99224,160.66747 250.12328,158.31085 252.56567,155.86847 C 256.79788,151.63625 260.62222,146.5187 263.19378,141.37559 C 264.65656,138.45002 267.05854,137.19919 267.05854,133.64606 C 267.05854,132.00962 268.10149,129.47425 268.50783,127.84891"
       id="path3751" />
    <path
       style="fill:none;fill-rule:evenodd;stroke:white;stroke-width:1.01450109;stroke-linecap:butt;stroke-linejoin:miter;stroke-miterlimit:4;stroke-dasharray:none;stroke-opacity:1"
       d="M 127.44386,386.30515 C 127.94066,384.31796 128.41005,380.1696 128.41005,376.64323 C 128.41005,373.45 126.25813,369.57258 125.02838,366.49822 C 123.8388,363.52428 123.34411,359.70864 124.06219,356.83631 C 124.7016,354.27867 125.02838,351.31063 125.02838,348.62369 C 125.02838,345.79445 124.99768,343.12539 124.54529,340.41105 C 123.97161,336.96902 125.45435,334.75673 126.47767,332.19843 C 127.65757,329.24868 128.93632,326.31494 130.34244,323.5027 C 132.06188,320.06382 133.92177,316.82713 135.65649,313.35769 C 136.92021,310.83024 138.27106,308.12856 139.52126,305.62816 C 140.6585,303.35367 140.38442,300.72623 140.97054,298.38172 C 141.04866,298.06927 140.97054,297.73759 140.97054,297.41553"
       id="path4638" />
    <path
       style="fill:none;fill-rule:evenodd;stroke:white;stroke-width:1.01450109;stroke-linecap:butt;stroke-linejoin:miter;stroke-miterlimit:4;stroke-dasharray:none;stroke-opacity:1"
       d="M 182.51678,230.74831 C 183.22949,227.89749 176.67188,230.01173 173.82106,229.29903 C 172.23407,228.90228 169.64848,226.00499 168.507,225.43426 C 165.35993,223.86072 165.20798,222.70098 163.67605,219.63711 C 162.95405,218.19312 165.48367,214.57257 166.09152,213.35686 C 167.41702,210.70587 168.25815,209.37498 170.92248,208.04281 C 172.19459,207.40676 174.52753,204.92086 175.75344,203.69495 C 177.75185,201.69654 180.14907,200.15668 182.51678,198.3809 C 185.22784,196.3476 186.89988,193.99779 189.28012,191.61755 C 191.78047,189.11721 194.17058,186.38519 196.04346,183.88802 C 198.21413,180.9938 200.13636,178.59186 202.32371,175.67539 C 204.56343,172.6891 207.49543,170.50367 210.05324,167.94586 C 212.9959,165.0032 215.06813,162.44788 217.78277,159.73323 C 219.94149,157.57452 222.52076,155.33432 225.02921,153.45299 C 227.5411,151.56907 229.38924,148.85749 231.79255,147.65584 C 235.09154,146.00635 237.99273,143.12648 240.97137,140.8925 C 241.6155,140.4094 242.25962,139.92631 242.90375,139.44321 C 245.44572,137.53673 247.5333,135.3639 249.184,133.16297 C 250.2418,131.75256 251.87076,131.44239 253.04876,130.26439"
       id="path6410" />
    <path
       style="fill:none;fill-rule:evenodd;stroke:white;stroke-width:1.35266817;stroke-linecap:butt;stroke-linejoin:miter;stroke-miterlimit:4;stroke-dasharray:1.35266817, 1.35266817;stroke-dashoffset:0;stroke-opacity:1"
       d="M 290.73023,296.44934 C 290.73023,291.20327 296.04429,282.79016 296.04429,274.71003 C 296.04429,269.68223 293.50542,261.84108 291.69643,257.31858 C 291.61185,257.10714 291.37436,256.99652 291.21333,256.83548 C 290.19778,255.81993 291.59658,248.63899 291.69643,248.13976 C 292.16978,245.77298 291.73127,242.482 291.21333,240.41023 C 290.39805,237.1491 288.24091,235.2839 287.34856,231.7145 C 286.70766,229.15088 286.86547,226.20897 286.86547,223.50187 C 286.86547,220.24301 287.07213,215.91189 287.83166,212.87377 C 288.75566,209.17777 286.42078,206.14883 283.96689,203.69495 C 282.07523,201.80329 279.64149,199.37703 278.16974,197.4147 C 277.23338,196.16622 278.36839,190.82298 278.65284,189.68517 C 280.28336,183.16309 281.76923,176.47125 283.96689,169.87824 C 286.50288,162.2703 289.3234,154.24935 291.21333,146.68965 C 291.92535,143.84156 292.81336,140.10792 294.1119,137.51083 C 294.56737,136.59989 294.75603,135.57844 295.0781,134.61225 C 296.45729,130.47468 297.37604,127.3615 299.90905,123.98415 C 300.94981,122.59647 300.92345,117.02797 301.35834,115.28842 C 301.43645,114.97597 301.35834,114.64429 301.35834,114.32223"
       id="path8182" />
    <path
       style="opacity:1;fill:none;fill-opacity:1;stroke:white;stroke-width:1.01450109;stroke-linejoin:round;stroke-miterlimit:4;stroke-dasharray:4.05800452, 1.01450113;stroke-dashoffset:0;stroke-opacity:1"
       d="M 201.84061,345.72511 C 201.84061,340.25002 201.84061,334.77494 201.84061,329.29985 C 201.84061,326.04486 202.32371,322.88173 202.32371,319.15484 C 202.32371,315.06416 203.2899,311.79174 203.2899,308.04364 C 203.2899,305.92018 205.76491,301.64432 206.67157,299.83101 C 208.15769,296.85876 209.14248,293.17064 210.53634,289.686 C 212.54211,284.67157 214.59818,279.91594 216.33348,274.71003 C 217.99675,269.72023 220.41612,264.65974 221.64754,259.73406 C 222.80017,255.12353 224.54611,249.48955 224.54611,244.75809 C 224.54611,240.40899 227.74691,235.7197 229.86017,232.1976 C 231.83733,228.90233 233.61105,224.02813 235.17422,220.1202 C 236.9926,215.57427 239.69903,211.07059 241.93756,206.59352 C 243.4028,203.66304 241.93756,196.47791 241.93756,193.06684 C 241.93756,189.92073 241.45447,187.43625 241.45447,184.37112 C 241.45447,182.43873 241.45447,180.50635 241.45447,178.57397"
       id="path17243" />
    <text
       xml:space="preserve"
       style="font-size:12px;font-style:normal;font-weight:normal;fill:black;fill-opacity:1;stroke:none;stroke-width:1px;stroke-linecap:butt;stroke-linejoin:miter;stroke-opacity:1;font-family:Bitstream Vera Sans"
       x="1100"
       y="1326.6479"
       id="text17249"><tspan
         sodipodi:role="line"
         id="tspan17251"
         x="1100"
         y="1326.6479" /></text>
    <path
       style="fill:none;fill-rule:evenodd;stroke:black;stroke-width:0.347;stroke-linecap:butt;stroke-linejoin:miter;stroke-opacity:1;stroke-miterlimit:4;stroke-dasharray:none"
       d="M 325.3861,352.7996 C 325.91843,337.64529 324.33249,321.83546 327.31849,306.90551 C 328.30453,301.97528 330.70016,297.11036 330.70016,292.41264 C 330.70016,290.94652 331.59762,289.58278 332.63253,288.54787"
       id="path10044" />
    <path
       style="fill:none;fill-rule:evenodd;stroke:black;stroke-width:0.347;stroke-linecap:butt;stroke-linejoin:miter;stroke-opacity:1;stroke-miterlimit:4;stroke-dasharray:none"
       d="M 390.60403,361.49533 C 390.60403,351.02825 390.60403,340.56119 390.60403,330.0941 C 390.60403,324.13592 390.60403,318.17774 390.60403,312.21956 C 390.60403,309.15996 390.60403,306.10035 390.60403,303.04074 C 390.60403,299.50801 389.75387,298.44184 388.18856,295.31121 C 386.93798,292.81005 386.016,292.17248 384.32378,290.48025 C 382.43695,288.59342 374.01784,289.99716 371.28021,289.99716 C 365.96615,289.99716 360.65209,289.99716 355.33805,289.99716 C 351.85314,289.99716 348.04495,288.52454 345.19304,287.09858 C 343.25598,286.13006 338.18449,286.13239 335.53111,286.13239 C 334.43136,286.13239 333.54874,284.94296 333.11564,284.6831"
       id="path10046" />
    <path
       style="fill:none;fill-rule:evenodd;stroke:black;stroke-width:0.369;stroke-linecap:butt;stroke-linejoin:miter;stroke-opacity:1;stroke-miterlimit:4;stroke-dasharray:none"
       d="M 333.11564,279.85215 C 329.94368,279.85215 336.10899,274.20634 336.9804,271.15642 C 338.73367,265.01999 341.83607,253.25717 346.15921,248.93402 C 347.33086,247.76238 348.0065,246.70314 349.54088,245.55235"
       id="path10048" />
    <path
       style="fill:none;fill-rule:evenodd;stroke:black;stroke-width:0.347;stroke-linecap:butt;stroke-linejoin:miter;stroke-opacity:1;stroke-miterlimit:4;stroke-dasharray:none"
       d="M 393.01951,232.02566 C 396.56739,231.58218 385.86014,231.44356 382.39141,230.57638 C 371.99376,227.97696 360.75564,224.14431 351.47327,220.43137 C 349.39615,219.60052 355.26948,222.81256 357.27042,223.81304"
       id="path10052" />
    <path
       style="fill:none;fill-rule:evenodd;stroke:black;stroke-width:0.147;stroke-linecap:butt;stroke-linejoin:miter;stroke-opacity:1;stroke-miterlimit:4;stroke-dasharray:none"
       d="M 402.68143,286.13239 C 402.05408,285.88145 416.18116,282.75072 428.2855,282.75072 C 443.26873,282.75072 457.58492,276.95357 472.24721,276.95357 C 480.22263,276.95357 487.22472,274.19259 494.46962,272.12261 C 501.93431,269.98984 509.58601,268.40471 516.69204,265.35927 C 520.29069,263.81699 523.64646,262.96398 527.32014,261.49451"
       id="path10054" />
    <path
       style="fill:none;fill-rule:evenodd;stroke:black;stroke-width:0.16908352px;stroke-linecap:butt;stroke-linejoin:miter;stroke-opacity:1"
       d="M 340.36207,355.21508 C 343.53659,353.85458 346.61371,323.41661 349.0578,316.08433 C 351.31357,309.31699 353.12764,302.4255 355.33805,295.79431"
       id="path10056" />
    <path
       style="fill:none;fill-rule:evenodd;stroke:black;stroke-width:0.347;stroke-linecap:butt;stroke-linejoin:miter;stroke-opacity:1;stroke-miterlimit:4;stroke-dasharray:none"
       d="M 361.61828,275.98738 C 363.94744,268.9999 366.07521,262.24259 369.34782,255.69736 C 370.12099,254.15101 371.07056,252.73498 371.76329,251.3495"
       id="path10058" />
    <path
       style="fill:#999;fill-rule:evenodd;stroke:black;stroke-width:0.16908352px;stroke-linecap:butt;stroke-linejoin:miter;stroke-opacity:1"
       d="M 371.28021,210.76945 C 371.62877,210.07232 390.44308,212.70183 392.05332,212.70183 C 400.71851,212.70183 409.44403,213.18493 418.14049,213.18493 C 424.09867,213.18493 430.05685,213.18493 436.01503,213.18493 C 439.70628,213.18493 441.81218,212.07577 441.81218,216.0835 C 441.81218,220.69049 425.73293,221.32835 422.97146,221.88065 C 413.6246,223.75002 402.50503,220.43137 393.01951,220.43137 C 384.4932,220.43137 374.31887,219.67291 366.44924,217.04969 C 360.53892,215.07959 365.33988,212.17938 368.86473,210.76945 C 369.6123,210.47042 370.47505,210.76945 371.28021,210.76945 z "
       id="path10060" />
    <path
       style="fill:none;fill-rule:evenodd;stroke:black;stroke-width:0.347;stroke-linecap:butt;stroke-linejoin:miter;stroke-opacity:1;stroke-miterlimit:4;stroke-dasharray:none"
       d="M 558.76967,331.49508 C 559.35034,310.71229 556.60806,320.88708 556.88561,300.09386 C 556.88561,298.96663 556.88561,297.83941 556.88561,296.71219 C 556.88561,288.1775 556.88561,279.6428 556.88561,271.10811 C 556.88561,265.31096 556.88561,259.51381 556.88561,253.71667 C 556.88561,250.12564 557.36869,246.74523 557.36869,243.08856 C 557.36869,239.06276 557.36869,235.03696 557.36869,231.01116 C 557.36869,224.40885 557.36869,217.80654 557.36869,211.20424 C 557.36869,202.83058 557.36869,194.45692 557.36869,186.08326 C 557.36869,179.53946 558.34823,177.08583 559.81924,171.20175"
       id="path10062"
       sodipodi:nodetypes="ccssssssss" />
    <path
       style="fill:#f9f9f9;fill-rule:evenodd;stroke:black;stroke-width:0.16908352px;stroke-linecap:butt;stroke-linejoin:miter;stroke-opacity:1"
       d="M 362.10139,236.37353 C 363.35863,233.63731 367.56762,231.54257 373.21258,231.54257 C 380.97168,231.54257 389.14009,234.44114 397.36738,234.44114 C 404.50054,234.44114 411.83289,233.47495 419.10668,233.47495 C 424.42074,233.47495 429.7348,233.47495 435.04884,233.47495 C 437.81356,233.47495 442.04293,234.39931 437.94742,236.85662 C 434.93493,238.66412 429.83885,241.78234 426.35313,242.65377 C 423.25244,244.51419 403.74309,241.68758 399.78285,241.68758 C 388.53435,241.68758 371.27513,244.01833 362.10139,236.37353 z "
       id="path10951" />
    <path
       style="fill:none;fill-rule:evenodd;stroke:black;stroke-width:0.347;stroke-linecap:butt;stroke-linejoin:miter;stroke-opacity:1;stroke-miterlimit:4;stroke-dasharray:none"
       d="M 506.54702,294.34502 C 508.12138,287.92291 507.51322,281.15164 507.51322,274.53809 C 507.51322,273.59735 504.49087,270.17825 504.13155,268.74094"
       id="path10955" />
    <path
       style="fill:#b3b3b3;fill-rule:evenodd;stroke:black;stroke-width:0.14803916;stroke-linecap:butt;stroke-linejoin:miter;stroke-miterlimit:4;stroke-dasharray:none;stroke-opacity:1"
       d="M 506.71362,276.36587 C 506.71362,275.77204 492.21371,280.34526 490.44492,282.66224 C 485.65434,288.93753 505.42748,277.22355 506.70226,276.38862"
       id="path10957"
       sodipodi:nodetypes="csc" />
    <path
       style="fill:none;fill-rule:evenodd;stroke:black;stroke-width:0.16908352px;stroke-linecap:butt;stroke-linejoin:miter;stroke-opacity:1"
       d="M 422.97146,361.97842 C 422.97146,361.65637 422.97146,361.3343 422.97146,361.97842 z "
       id="path10961" />
    <path
       style="fill:none;fill-rule:evenodd;stroke:black;stroke-width:0.369;stroke-linecap:butt;stroke-linejoin:miter;stroke-opacity:1;stroke-miterlimit:4;stroke-dasharray:none"
       d="M 422.48835,360.52914 C 423.91095,354.9915 423.45455,349.0668 423.45455,343.1377 C 423.45455,332.32641 422.80789,321.56956 425.38693,311.25337 C 426.66488,306.14154 430.21494,301.59883 432.15027,296.7605 C 433.46245,293.48004 435.34367,290.26715 436.01503,287.58168 C 436.09315,287.26923 436.01503,286.93755 436.01503,286.61549"
       id="path10963" />
    <path
       style="fill:none;fill-rule:evenodd;stroke:black;stroke-width:0.347;stroke-linecap:butt;stroke-linejoin:miter;stroke-opacity:1;stroke-miterlimit:4;stroke-dasharray:none"
       d="M 440.3629,229.61019 C 441.31783,228.27329 455.97079,231.09656 459.68673,229.61019 C 468.39096,226.12849 495.39608,228.64399 506.06392,228.64399 C 520.7901,228.64399 533.72781,223.5237 547.12707,218.49898 C 548.46907,217.99573 549.23654,217.44424 550.02563,217.04969"
       id="path10967" />
    <path
       style="fill:none;fill-rule:evenodd;stroke:black;stroke-width:0.347;stroke-linecap:butt;stroke-linejoin:miter;stroke-opacity:1;stroke-miterlimit:4;stroke-dasharray:none"
       d="M 483.84152,229.61019 C 483.89587,229.5898 480.94294,235.30364 480.94294,241.20448 C 480.94294,241.68758 480.94294,242.17068 480.94294,242.65377"
       id="path10969" />
    <path
       style="fill:none;fill-rule:evenodd;stroke:black;stroke-width:0.347;stroke-linecap:butt;stroke-linejoin:miter;stroke-opacity:1;stroke-miterlimit:4;stroke-dasharray:none"
       d="M 441.32909,272.60571 C 444.33551,267.47747 446.84794,262.05109 449.54171,256.66355 C 452.44572,250.85554 455.84611,245.50405 458.72053,239.7552 C 460.19195,236.81239 462.88016,234.58233 465.00078,232.99186"
       id="path10971" />
    <path
       style="fill:none;fill-rule:evenodd;stroke:black;stroke-width:0.347;stroke-linecap:butt;stroke-linejoin:miter;stroke-opacity:1;stroke-miterlimit:4;stroke-dasharray:none"
       d="M 469.34865,200.14134 C 469.93124,198.97616 483.34001,194.35033 487.70628,192.89491"
       id="path10973" />
    <path
       style="fill:none;fill-rule:evenodd;stroke:black;stroke-width:0.347;stroke-linecap:butt;stroke-linejoin:miter;stroke-opacity:1;stroke-miterlimit:4;stroke-dasharray:none"
       d="M 482.87533,190.47943 C 484.62901,186.97204 490.34561,188.07103 493.98654,186.61466 C 494.30595,186.48689 495.5209,185.46388 495.91891,185.16537"
       id="path10975" />
    <path
       style="fill:none;fill-opacity:1;stroke:black;stroke-width:0.647;stroke-linejoin:round;stroke-miterlimit:4;stroke-dasharray:2.588,0.647;stroke-dashoffset:0;stroke-opacity:1"
       d="M 327.80156,354.2489 C 332.03117,344.44319 329.86338,333.51661 331.57992,323.24549 C 332.0609,308.37823 330.45821,291.80378 337.66755,278.28653 C 341.81889,269.8517 345.55251,261.20156 349.34143,252.61219 C 351.11938,246.83737 351.42436,239.91935 356.7025,235.98708 C 365.02314,228.57856 376.8429,229.44219 387.20344,229.62304 C 394.12057,229.54906 401.11883,229.9705 407.99548,229.12709 C 407.19032,228.80502 406.38516,228.48296 405.58,228.1609 C 403.49936,227.32864 399.92588,227.12669 397.85046,226.71161 C 394.74842,226.0912 391.94578,223.96326 389.15475,222.84684 C 386.26378,221.69046 381.82177,221.88065 378.52664,221.88065 C 375.65996,221.88065 372.50234,221.94464 370.31401,221.39756 C 366.93041,220.55166 364.13678,218.11891 362.10139,216.0835 C 360.00626,213.98837 359.38298,209.07468 358.71972,206.42159 C 357.98689,203.49031 359.6859,199.04079 359.6859,195.79348 C 360.14202,185.83125 360.08303,171.33149 365.49906,163.19786 C 371.43221,151.66639 384.80121,145.79281 397.05242,143.61914 C 397.68784,143.14258 400.9256,142.29982 401.23213,141.68675"
       id="path12795"
       sodipodi:nodetypes="cccccccssssssscccc" />
    <path
       style="fill:none;fill-opacity:1;stroke:black;stroke-width:0.73;stroke-linejoin:round;stroke-miterlimit:4;stroke-dasharray:1.46,0.73;stroke-dashoffset:0;stroke-opacity:1"
       d="M 393.5026,361.49533 C 394.14579,361.49533 393.98571,352.28194 393.98571,349.90104 C 393.98571,346.24265 392.53642,342.96738 392.53642,339.27292 C 392.53642,336.05229 392.53642,332.83165 392.53642,329.61102 C 392.53642,325.42419 392.53642,321.23736 392.53642,317.05052 C 392.53642,312.70266 392.53642,308.3548 392.53642,304.00694 C 392.53642,300.48714 392.88812,296.71801 392.05332,293.37883 C 391.27066,290.24822 389.68302,289.07615 387.70545,287.09858 C 385.63266,285.02578 380.89494,285.6493 378.04355,285.6493 C 373.91972,285.6493 369.50762,286.77676 365.48306,287.58168 C 360.5689,288.56451 355.61095,288.54787 350.50708,288.54787 C 346.44576,288.54787 343.72541,288.04644 340.84517,285.1662 C 339.08752,283.40854 338.25892,282.09686 336.49731,280.33524"
       id="path13685" />
    <path
       style="fill:none;fill-opacity:1;stroke:black;stroke-width:0.72993356;stroke-linejoin:round;stroke-miterlimit:4;stroke-dasharray:2.91973419, 1.45986709, 0.72993355, 1.45986709;stroke-dashoffset:0;stroke-opacity:1"
       d="M 343.26065,354.73199 C 346.29294,340.25341 348.33665,331.51427 350.34426,319.30319 C 353.51598,312.4821 353.69961,304.08828 356.78733,297.24359 C 358.59603,293.62618 360.1245,289.41237 362.58448,286.13239 C 365.10431,282.77261 365.34013,278.48003 367.41543,275.02119 C 369.6218,271.34391 371.15557,266.87857 372.72949,262.94379 C 374.05497,259.6301 374.98182,256.50676 376.59425,253.28188 C 378.47637,249.51765 379.86368,246.63078 382.8745,243.61996 C 384.6652,241.82927 386.1729,240.32157 387.70545,238.789 C 389.82062,236.67383 391.93995,235.46402 394.9519,233.95805 C 398.10193,232.38303 401.66287,231.56875 404.61381,230.09328 C 404.66098,229.26858 405.25795,229.77122 405.58,229.61019"
       id="path13687"
       sodipodi:nodetypes="cccssssssscc" />
    <path
       style="fill:none;fill-opacity:1;stroke:black;stroke-width:0.72993356;stroke-linejoin:round;stroke-miterlimit:4;stroke-dasharray:2.91973419, 1.45986709, 0.72993355, 1.45986709;stroke-dashoffset:0;stroke-opacity:1"
       d="M 407.02928,227.6778 C 409.70968,227.15666 415.5819,226.26429 419.58979,225.26232 C 422.40963,224.55736 425.75501,222.90435 427.80241,221.88065 C 430.57861,220.49255 433.59844,219.46573 436.49814,218.01589 C 439.17832,216.6758 442.34615,216.54117 445.19385,215.11731 C 449.13329,213.1476 453.32579,212.74218 457.27125,210.76945 C 461.02433,208.89291 464.66338,208.39231 468.38245,206.90468 C 470.53389,206.04411 473.3717,205.17427 476.11199,204.48921 C 478.89527,203.79338 481.33561,202.11894 483.35842,201.10753 C 486.87717,199.34816 487.10482,199.64863 487.70628,197.24277 C 487.8074,196.83833 485.7739,191.90594 485.7739,189.99633 C 485.7739,185.20561 485.29081,180.72398 485.29081,175.98655 C 485.29081,171.58922 484.8077,167.41102 484.8077,162.94297 C 484.8077,158.80324 483.84152,154.57352 483.84152,150.38248 C 483.84152,148.24965 483.35842,145.87391 483.35842,143.61914"
       id="path14574" />
    <path
       style="fill:none;fill-opacity:1;stroke:black;stroke-width:0.72993356;stroke-linejoin:round;stroke-miterlimit:4;stroke-dasharray:2.91973419, 1.45986709, 0.72993355, 1.45986709;stroke-dashoffset:0;stroke-opacity:1"
       d="M 425.38693,363.91081 C 427.4765,352.20667 427.4337,340.95746 426.84688,329.14393 C 429.28817,311.16961 433.37746,301.63988 440.04796,284.67777 C 442.35433,280.83382 445.52458,273.50379 448.09243,269.22404 C 450.96107,264.44297 457.21152,248.67159 460.56084,244.20581 C 468.85618,235.20711 469.15623,233.9876 477.07818,224.77923 C 480.04673,221.81067 481.54894,217.40988 484.32461,214.63422 C 486.29498,212.66386 487.49853,210.15116 488.18937,207.38778 C 488.56203,205.89716 489.34421,205.18394 489.63867,204.00611"
       id="path14576"
       sodipodi:nodetypes="cccsccssc" />
    <path
       style="fill:none;fill-opacity:1;stroke:black;stroke-width:0.80587649;stroke-linejoin:round;stroke-miterlimit:4;stroke-dasharray:1.61175295, 0.80587649;stroke-dashoffset:0;stroke-opacity:1"
       d="M 547.55151,331.3605 C 547.55151,318.11879 548.66782,271.48261 550.10483,258.6837 C 550.69887,253.39253 551.05047,248.49496 551.05047,243.04135 C 551.05047,240.64947 550.54664,239.87543 550.10483,237.62668"
       id="path14578"
       sodipodi:nodetypes="cssc" />
    <path
       style="fill:none;fill-opacity:1;stroke:black;stroke-width:0.64539683;stroke-linejoin:round;stroke-miterlimit:4;stroke-dasharray:1.29079366, 0.64539683;stroke-dashoffset:0;stroke-opacity:1"
       d="M 550.08,222.32798 C 550.08,221.44217 550.56976,216.10531 552.0183,213.29149 C 553.61931,210.18152 554.92578,205.7177 554.92578,202.37238 C 554.92578,199.23471 554.92578,196.09703 554.92578,192.95936 C 554.92578,189.69618 554.92578,186.433 554.92578,183.16982 C 554.92578,180.28316 554.92578,177.39651 554.92578,174.50984 C 554.92578,171.60983 555.53835,169.5938 556.37951,166.97943 C 557.1578,164.56051 558.06431,162.11955 558.80241,159.82553 C 559.66989,157.12938 562.7493,154.87617 565.10194,153.04815 C 567.69451,151.0337 569.89095,149.46726 571.88604,147.40035 C 573.54177,145.68499 575.79728,145.49084 577.70099,144.01165"
       id="path14580" />
    <text
       xml:space="preserve"
       style="font-size:13.17714882px;font-style:normal;font-weight:normal;fill:black;fill-opacity:1;stroke:none;stroke-width:1px;stroke-linecap:butt;stroke-linejoin:miter;stroke-opacity:1;font-family:Bitstream Vera Sans"
       x="317.21112"
       y="367.46878"
       id="text17259"><tspan
         sodipodi:role="line"
         id="tspan17261"
         x="317.21112"
         y="367.46878">1</tspan></text>
    <text
       xml:space="preserve"
       style="font-size:12.7066555px;font-style:normal;font-weight:normal;fill:black;fill-opacity:1;stroke:none;stroke-width:1px;stroke-linecap:butt;stroke-linejoin:miter;stroke-opacity:1;font-family:Bitstream Vera Sans"
       x="337.54529"
       y="371.03189"
       id="text17263"><tspan
         sodipodi:role="line"
         id="tspan17265"
         x="337.54529"
         y="371.03189">2</tspan></text>
    <text
       xml:space="preserve"
       style="font-size:13.29806995px;font-style:normal;font-weight:normal;fill:black;fill-opacity:1;stroke:none;stroke-width:1px;stroke-linecap:butt;stroke-linejoin:miter;stroke-opacity:1;font-family:Bitstream Vera Sans"
       x="389.24048"
       y="376.40872"
       id="text17267"><tspan
         sodipodi:role="line"
         id="tspan17269"
         x="389.24048"
         y="376.40872">3</tspan></text>
    <text
       xml:space="preserve"
       style="font-size:14.14798164px;font-style:normal;font-weight:normal;fill:black;fill-opacity:1;stroke:none;stroke-width:1px;stroke-linecap:butt;stroke-linejoin:miter;stroke-opacity:1;font-family:Bitstream Vera Sans"
       x="421.45892"
       y="377.34088"
       id="text17271"><tspan
         sodipodi:role="line"
         id="tspan17273"
         x="421.45892"
         y="377.34088">4</tspan></text>
    <text
       xml:space="preserve"
       style="font-size:14.12309265px;font-style:normal;font-weight:normal;fill:black;fill-opacity:1;stroke:none;stroke-width:1px;stroke-linecap:butt;stroke-linejoin:miter;stroke-opacity:1;font-family:Bitstream Vera Sans"
       x="542.92047"
       y="347.17233"
       id="text17275"><tspan
         sodipodi:role="line"
         id="tspan17277"
         x="542.92047"
         y="347.17233">5</tspan></text>
    <text
       xml:space="preserve"
       style="font-size:13.17714882px;font-style:normal;font-weight:normal;fill:white;fill-opacity:1;stroke:none;stroke-width:1px;stroke-linecap:butt;stroke-linejoin:miter;stroke-opacity:1;font-family:Bitstream Vera Sans"
       x="124.46523"
       y="400.39465"
       id="text2147"><tspan
         sodipodi:role="line"
         id="tspan2149"
         x="124.46523"
         y="400.39465">1</tspan></text>
    <text
       xml:space="preserve"
       style="font-size:12.7066555px;font-style:normal;font-weight:normal;fill:white;fill-opacity:1;stroke:none;stroke-width:1px;stroke-linecap:butt;stroke-linejoin:miter;stroke-opacity:1;font-family:Bitstream Vera Sans"
       x="144.79941"
       y="403.95776"
       id="text2151"><tspan
         sodipodi:role="line"
         id="tspan2153"
         x="144.79941"
         y="403.95776">2</tspan></text>
    <text
       xml:space="preserve"
       style="font-size:13.29806995px;font-style:normal;font-weight:normal;fill:white;fill-opacity:1;stroke:none;stroke-width:1px;stroke-linecap:butt;stroke-linejoin:miter;stroke-opacity:1;font-family:Bitstream Vera Sans"
       x="171.68475"
       y="387.09131"
       id="text2155"><tspan
         sodipodi:role="line"
         id="tspan2157"
         x="171.68475"
         y="387.09131">3</tspan></text>
    <text
       xml:space="preserve"
       style="font-size:14.14798164px;font-style:normal;font-weight:normal;fill:white;fill-opacity:1;stroke:none;stroke-width:1px;stroke-linecap:butt;stroke-linejoin:miter;stroke-opacity:1;font-family:Bitstream Vera Sans"
       x="199.19788"
       y="360.64713"
       id="text2159"><tspan
         sodipodi:role="line"
         id="tspan2161"
         x="199.19788"
         y="360.64713">4</tspan></text>
    <text
       xml:space="preserve"
       style="font-size:14.12309265px;font-style:normal;font-weight:normal;fill:white;fill-opacity:1;stroke:none;stroke-width:1px;stroke-linecap:butt;stroke-linejoin:miter;stroke-opacity:1;font-family:Bitstream Vera Sans"
       x="285.1557"
       y="311.65732"
       id="text2163"><tspan
         sodipodi:role="line"
         id="tspan2165"
         x="285.1557"
         y="311.65732">5</tspan></text>
    <path
       style="opacity:1;fill:#999;fill-rule:evenodd;stroke:black;stroke-width:0.1;stroke-linecap:butt;stroke-linejoin:miter;stroke-miterlimit:4;stroke-dasharray:none;stroke-opacity:1"
       d="M 505.53489,277.69979 C 505.83528,278.20138 505.97994,279.10962 506.09192,279.76229 C 506.17745,280.26076 506.33435,280.87963 506.18816,281.32479 C 506.00831,281.87242 505.78998,282.33737 505.50804,282.82479 C 504.37956,284.73696 502.83265,286.23162 500.63866,287.13729 C 498.50336,287.75989 497.64376,288.16666 497.70612,290.26229 C 497.58531,290.63017 497.83703,292.1474 497.71721,292.51229 C 497.6221,292.80193 497.48169,293.13559 497.33609,293.38729 C 497.1963,293.629 497.38294,294.0627 497.23133,294.32479 C 497.20577,294.36899 497.28403,294.44979 497.31038,294.51229 C 496.1583,292.71447 496.61993,288.80205 496.75385,287.26229 C 496.778,284.3537 497.59648,283.45426 500.00741,281.63729 C 501.25225,280.38439 503.23724,280.54777 503.99938,278.94979 C 504.16584,278.66202 504.24781,278.38026 504.46935,278.13729 C 504.70286,277.88117 504.8656,277.7995 505.22239,277.69979 C 505.31281,277.67453 505.43072,277.69979 505.53489,277.69979 z "
       id="path4824"
       sodipodi:nodetypes="csscccsssccccssc" />
    <g
       id="g8377"
       transform="matrix(0.244576,0.244576,-0.244576,0.244576,326.6924,-81.71718)"
       style="fill:#f2f2f2">
      <path
         transform="matrix(0.85502,0,0,0.85502,88.95917,44.27699)"
         d="M 612.46325 292.61108 A 11.655874 11.655874 0 1 1  589.1515,292.61108 A 11.655874 11.655874 0 1 1  612.46325 292.61108 z"
         sodipodi:ry="11.655874"
         sodipodi:rx="11.655874"
         sodipodi:cy="292.61108"
         sodipodi:cx="600.80737"
         id="path8379"
         style="opacity:1;fill:#f2f2f2;stroke:black;stroke-width:2.26900005;stroke-miterlimit:4;stroke-dasharray:none;stroke-dashoffset:0;stroke-opacity:1"
         sodipodi:type="arc" />
      <path
         id="path8381"
         d="M 602.66171,284.49941 L 602.66171,303.52543"
         style="fill:#f2f2f2;fill-rule:evenodd;stroke:black;stroke-width:0.85502034px;stroke-linecap:butt;stroke-linejoin:miter;stroke-opacity:1" />
      <path
         id="path8383"
         d="M 612.62771,294.46542 L 592.6957,294.46542"
         style="fill:#f2f2f2;fill-rule:evenodd;stroke:black;stroke-width:0.85502034px;stroke-linecap:butt;stroke-linejoin:miter;stroke-opacity:1" />
    </g>
    <g
       id="g8385"
       transform="matrix(0.244576,0.244576,-0.244576,0.244576,336.2291,10.47019)"
       style="fill:#f2f2f2">
      <path
         transform="matrix(0.85502,0,0,0.85502,88.95917,44.27699)"
         d="M 612.46325 292.61108 A 11.655874 11.655874 0 1 1  589.1515,292.61108 A 11.655874 11.655874 0 1 1  612.46325 292.61108 z"
         sodipodi:ry="11.655874"
         sodipodi:rx="11.655874"
         sodipodi:cy="292.61108"
         sodipodi:cx="600.80737"
         id="path8387"
         style="opacity:1;fill:#f2f2f2;stroke:black;stroke-width:2.26900005;stroke-miterlimit:4;stroke-dasharray:none;stroke-dashoffset:0;stroke-opacity:1"
         sodipodi:type="arc" />
      <path
         id="path8389"
         d="M 602.66171,284.49941 L 602.66171,303.52543"
         style="fill:#f2f2f2;fill-rule:evenodd;stroke:black;stroke-width:0.85502034px;stroke-linecap:butt;stroke-linejoin:miter;stroke-opacity:1" />
      <path
         id="path8391"
         d="M 612.62771,294.46542 L 592.6957,294.46542"
         style="fill:#f2f2f2;fill-rule:evenodd;stroke:black;stroke-width:0.85502034px;stroke-linecap:butt;stroke-linejoin:miter;stroke-opacity:1" />
    </g>
    <g
       id="g8393"
       transform="matrix(0.244576,0.244576,-0.244576,0.244576,414.6992,-17.93235)"
       style="fill:#f2f2f2">
      <path
         transform="matrix(0.85502,0,0,0.85502,88.95917,44.27699)"
         d="M 612.46325 292.61108 A 11.655874 11.655874 0 1 1  589.1515,292.61108 A 11.655874 11.655874 0 1 1  612.46325 292.61108 z"
         sodipodi:ry="11.655874"
         sodipodi:rx="11.655874"
         sodipodi:cy="292.61108"
         sodipodi:cx="600.80737"
         id="path8395"
         style="opacity:1;fill:#f2f2f2;stroke:black;stroke-width:2.26900005;stroke-miterlimit:4;stroke-dasharray:none;stroke-dashoffset:0;stroke-opacity:1"
         sodipodi:type="arc" />
      <path
         id="path8397"
         d="M 602.66171,284.49941 L 602.66171,303.52543"
         style="fill:#f2f2f2;fill-rule:evenodd;stroke:black;stroke-width:0.85502034px;stroke-linecap:butt;stroke-linejoin:miter;stroke-opacity:1" />
      <path
         id="path8399"
         d="M 612.62771,294.46542 L 592.6957,294.46542"
         style="fill:#f2f2f2;fill-rule:evenodd;stroke:black;stroke-width:0.85502034px;stroke-linecap:butt;stroke-linejoin:miter;stroke-opacity:1" />
    </g>
    <g
       id="g8401"
       transform="matrix(0.244576,0.244576,-0.244576,0.244576,506.8865,-76.74153)"
       style="fill:#f2f2f2">
      <path
         transform="matrix(0.85502,0,0,0.85502,88.95917,44.27699)"
         d="M 612.46325 292.61108 A 11.655874 11.655874 0 1 1  589.1515,292.61108 A 11.655874 11.655874 0 1 1  612.46325 292.61108 z"
         sodipodi:ry="11.655874"
         sodipodi:rx="11.655874"
         sodipodi:cy="292.61108"
         sodipodi:cx="600.80737"
         id="path8403"
         style="opacity:1;fill:#f2f2f2;stroke:black;stroke-width:2.26900005;stroke-miterlimit:4;stroke-dasharray:none;stroke-dashoffset:0;stroke-opacity:1"
         sodipodi:type="arc" />
      <path
         id="path8405"
         d="M 602.66171,284.49941 L 602.66171,303.52543"
         style="fill:#f2f2f2;fill-rule:evenodd;stroke:black;stroke-width:0.85502034px;stroke-linecap:butt;stroke-linejoin:miter;stroke-opacity:1" />
      <path
         id="path8407"
         d="M 612.62771,294.46542 L 592.6957,294.46542"
         style="fill:#f2f2f2;fill-rule:evenodd;stroke:black;stroke-width:0.85502034px;stroke-linecap:butt;stroke-linejoin:miter;stroke-opacity:1" />
    </g>
    <g
       id="g9302"
       transform="translate(-149.4373,-74.73979)">
      <path
         id="path8409"
         d="M 638.47696,223.9898 L 638.47696,229.32349 L 640.09095,226.52799"
         style="fill:none;fill-rule:evenodd;stroke:black;stroke-width:0.94;stroke-linecap:butt;stroke-linejoin:miter;stroke-miterlimit:4;stroke-dasharray:none;stroke-opacity:1" />
      <path
         id="path8415"
         d="M 638.2403,223.98589 L 638.2403,229.31958 L 636.62632,226.52407"
         style="fill:none;fill-rule:evenodd;stroke:black;stroke-width:0.94;stroke-linecap:butt;stroke-linejoin:miter;stroke-miterlimit:4;stroke-dasharray:none;stroke-opacity:1" />
    </g>
    <g
       id="g8372"
       transform="matrix(0.244576,0.244576,-0.244576,0.244576,413.5202,-72.44992)"
       style="fill:#f2f2f2">
      <path
         transform="matrix(0.85502,0,0,0.85502,88.95917,44.27699)"
         d="M 612.46325 292.61108 A 11.655874 11.655874 0 1 1  589.1515,292.61108 A 11.655874 11.655874 0 1 1  612.46325 292.61108 z"
         sodipodi:ry="11.655874"
         sodipodi:rx="11.655874"
         sodipodi:cy="292.61108"
         sodipodi:cx="600.80737"
         id="path7481"
         style="opacity:1;fill:#f2f2f2;stroke:black;stroke-width:2.26900005;stroke-miterlimit:4;stroke-dasharray:none;stroke-dashoffset:0;stroke-opacity:1"
         sodipodi:type="arc" />
      <path
         id="path8368"
         d="M 602.66171,284.49941 L 602.66171,303.52543"
         style="fill:#f2f2f2;fill-rule:evenodd;stroke:black;stroke-width:0.85502034px;stroke-linecap:butt;stroke-linejoin:miter;stroke-opacity:1" />
      <path
         id="path8370"
         d="M 612.62771,294.46542 L 592.6957,294.46542"
         style="fill:#f2f2f2;fill-rule:evenodd;stroke:black;stroke-width:0.85502034px;stroke-linecap:butt;stroke-linejoin:miter;stroke-opacity:1" />
    </g>
    <g
       id="g9311"
       transform="matrix(0.244576,0.244576,-0.244576,0.244576,473.5083,9.617881)"
       style="fill:#f2f2f2">
      <path
         transform="matrix(0.85502,0,0,0.85502,88.95917,44.27699)"
         d="M 612.46325 292.61108 A 11.655874 11.655874 0 1 1  589.1515,292.61108 A 11.655874 11.655874 0 1 1  612.46325 292.61108 z"
         sodipodi:ry="11.655874"
         sodipodi:rx="11.655874"
         sodipodi:cy="292.61108"
         sodipodi:cx="600.80737"
         id="path9313"
         style="opacity:1;fill:#f2f2f2;stroke:black;stroke-width:2.26900005;stroke-miterlimit:4;stroke-dasharray:none;stroke-dashoffset:0;stroke-opacity:1"
         sodipodi:type="arc" />
      <path
         id="path9315"
         d="M 602.66171,284.49941 L 602.66171,303.52543"
         style="fill:#f2f2f2;fill-rule:evenodd;stroke:black;stroke-width:0.85502034px;stroke-linecap:butt;stroke-linejoin:miter;stroke-opacity:1" />
      <path
         id="path9317"
         d="M 612.62771,294.46542 L 592.6957,294.46542"
         style="fill:#f2f2f2;fill-rule:evenodd;stroke:black;stroke-width:0.85502034px;stroke-linecap:butt;stroke-linejoin:miter;stroke-opacity:1" />
    </g>
  </g>
</svg>
