<?xml version="1.0" standalone="yes"?>

<svg version="1.1" viewBox="0.0 0.0 960.0 720.0" fill="none" stroke="none" stroke-linecap="square" stroke-miterlimit="10" xmlns="http://www.w3.org/2000/svg" xmlns:xlink="http://www.w3.org/1999/xlink"><path d="M0 0L960.0 0L960.0 720.0L0 720.0Z" fill-rule="nonzero" fill="#ffffff"></path><path d="M630.948 709.0955L630.948 709.0955L635.1293 702.2752L641.9496 706.4565L637.7683 713.2768ZM647.67316 681.8143L647.67316 681.8143L651.2143 676.03815L654.62445 678.1288L651.1885 676.08093L651.81555 675.0288L658.6875 679.1245L658.0604 680.17664L658.0346 680.2194L654.49347 685.99554ZM663.9728 654.42645L663.9728 654.42645L667.9348 647.4765L674.88477 651.43854L670.9227 658.3885ZM679.37714 626.53656L679.37714 626.53656L681.02 623.41284L684.56024 625.2748L680.99005 623.47095L683.0061 619.4807L690.1465 623.0884L688.13043 627.0786L688.10046 627.1367L686.4576 630.26044ZM693.36835 597.99634L693.36835 597.99634L695.12036 594.19183L698.7536 595.865L695.08826 594.2634L696.61426 590.7708L703.94507 593.97394L702.41895 597.46655L702.38684 597.53815L700.6348 601.34265ZM705.75964 568.76306L705.75964 568.76306L708.35406 562.0872L712.0824 563.53613L708.3107 562.20404L708.5897 561.4141L716.13306 564.0783L715.85406 564.8682L715.8107 564.98505L713.2163 571.6609ZM715.2923 538.77893L715.2923 538.77893L715.47076 538.0642L719.3516 539.03314L715.44214 538.18695L716.97876 531.0881L724.7976 532.78046L723.2611 539.87933L723.2325 540.0021L723.054 540.7169ZM721.4346 507.71506L721.4346 507.71506L722.7286 499.8204L730.6232 501.1144L729.3292 509.00906ZM726.61725 476.1338L726.61725 476.1338L727.90533 468.32098L727.9155 468.26086L727.93005 468.18042L735.8031 469.60205L735.7886 469.6825L731.85205 468.97168L735.79877 469.62238L734.5107 477.43512ZM732.44476 444.5137L732.44476 444.5137L734.05316 436.67706L741.88983 438.28546L740.28143 446.1221ZM738.65247 413.2928L738.65247 413.2928L739.9336 405.39603L747.8303 406.67715L746.5492 414.5739ZM741.86816 382.09964L741.86816 382.09964L741.8786 381.09326L745.87836 381.13474L741.8805 381.26556L741.73224 376.7353L745.7301 376.60446L741.74023 376.88928L741.565 374.43466L749.54474 373.86502L749.72 376.31964L749.72797 376.47363L749.8762 381.0039L749.87836 381.13474L749.8781 381.1762L749.8677 382.1826ZM738.81384 350.979L738.81384 350.979L738.4762 348.94043L742.4224 348.28683L738.4999 349.0701L737.33795 343.25128L745.18304 341.68475L746.345 347.50357L746.36865 347.63324L746.7063 349.67175ZM730.8011 320.82236L730.8011 320.82236L730.6081 320.29456L734.3648 318.9209L730.67706 320.4702L728.6353 315.61038L732.32306 314.06107L728.7221 315.80264L727.77875 313.8521L734.98065 310.36896L735.924 312.3195L736.0108 312.51175L738.05255 317.37158L738.1215 317.54724L738.3145 318.07504ZM714.779 296.5052L714.779 296.5052L713.1808 295.4143L715.43585 292.11057L713.43726 295.57544L710.9851 294.161L712.9837 290.69614L711.2434 294.29773L708.7483 293.0921L710.4886 289.4905L709.00073 293.2035L708.5709 293.03128L711.54675 285.60532L711.97644 285.77753L712.2289 285.88892L714.724 287.09454L714.9823 287.23126L717.43445 288.6457L717.57916 288.73328L717.6909 288.80682L719.2891 289.89777ZM686.3637 288.95538L686.3637 288.95538L678.37616 288.5089L678.8226 280.52142L686.8101 280.9679ZM653.6518 283.2021L653.6518 283.2021L653.56415 283.16284L653.4956 283.13168L653.3033 283.0348L650.8672 281.7239L650.6054 281.56995L648.2176 280.04074L647.96216 279.8628L646.126 278.47424L650.9513 272.09332L652.7875 273.4818L650.3748 276.6723L652.53204 273.30386L654.91986 274.83307L652.76263 278.2015L654.6581 274.6791L657.0942 275.99L655.1987 279.5124L656.8333 275.86194L656.92096 275.90118ZM630.5815 258.42566L630.5815 258.42566L628.6648 255.20226L628.5921 255.07474L626.55554 251.3447L633.57715 247.51102L635.6137 251.24106L632.1029 253.1579L635.541 251.11354L637.4577 254.33693ZM618.63556 227.25577L618.63556 227.25577L618.2669 224.34702L618.2667 224.34541L618.2466 224.14594L617.9448 220.15872L617.9348 219.96303L617.9065 218.89406L625.90356 218.68175L625.932 219.75072L621.9334 219.85687L625.922 219.55502L626.22375 223.54224L622.23517 223.84409L626.2034 223.34116L626.5721 226.24991ZM618.30023 194.66895L618.30023 194.66895L618.5532 186.67294L626.5492 186.92593L626.2962 194.92194ZM618.1377 163.12988L618.1377 163.12988L618.0107 161.49591L621.99866 161.18591L618.0343 161.71837L617.59546 158.45103L621.5598 157.91858L617.62555 158.64078L617.07227 155.62671L624.9408 154.18231L625.4941 157.19638L625.5242 157.38612L625.963 160.65346L625.98663 160.87592L626.11365 162.50989ZM611.3892 132.77698L611.3892 132.77698L609.0711 125.12019L616.72784 122.80208L619.04596 130.45886ZM601.00745 103.030716L601.00745 103.030716L597.7991 95.70314L601.4632 94.0988L597.916 95.91011L597.91565 95.90939L605.01 92.28677L605.0104 92.28749L604.9684 92.1718L605.1273 92.49446L608.3357 99.82204ZM586.5373 75.2034L586.5373 75.2034L585.33203 73.284485L588.7193 71.15695L585.463 73.479965L582.133 68.81209L588.64557 64.16606L591.9756 68.83394L592.10657 69.02942L593.3118 70.94833ZM566.6509 52.07103L566.6509 52.07103L564.448 50.335907L566.92303 47.19362L564.5996 50.4496L562.025 48.61238L564.34845 45.3564L562.19055 48.72438L560.4788 47.627655L564.7946 40.891693L566.50635 41.98842L566.6719 42.100418L569.24646 43.937637L569.3981 44.05133L571.60095 45.786453Z" fill-rule="nonzero" fill="#073763"></path><path d="M28.094967 242.26279L67.248505 296.43546L87.84817 296.19022L115.17071 300.12445L129.87538 262.65332L113.87488 231.26604L64.725876 217.49135L45.01469 211.76312Z" fill-rule="nonzero" fill="#cfe2f3" stroke="#073763" stroke-width="2.0" stroke-linejoin="round" stroke-linecap="butt"></path><path d="M451.22275 394.43344L468.74017 443.82797L497.6539 478.98898L528.03516 504.66504L556.03204 520.7382L586.8283 512.4784L623.4733 457.05112L605.22095 412.39948L525.4266 352.70016L491.78778 366.8261L474.3846 363.5963Z" fill-rule="nonzero" fill="#cfe2f3" stroke="#073763" stroke-width="2.0" stroke-linejoin="round" stroke-linecap="butt"></path><path d="M467.50827 484.24954L467.50827 484.24954C467.50827 480.17047 470.81503 476.8637 474.8941 476.8637L474.8941 476.8637C476.85297 476.8637 478.73157 477.64188 480.11667 479.02698C481.5018 480.41208 482.27994 482.2907 482.27994 484.24954L482.27994 484.24954C482.27994 488.3286 478.9732 491.63538 474.8941 491.63538L474.8941 491.63538C470.81503 491.63538 467.50827 488.3286 467.50827 484.24954Z" fill-rule="nonzero" fill="#38761d" stroke="#073763" stroke-width="2.0" stroke-linejoin="round" stroke-linecap="butt"></path><path d="M494.21686 358.03876L493.07623 358.03876L493.07623 350.7575Q492.65436 351.14813 491.9903 351.54657Q491.32623 351.945 490.79498 352.1325L490.79498 351.02313Q491.7481 350.58563 492.46686 349.945Q493.1856 349.30438 493.48248 348.695L494.21686 348.695L494.21686 358.03876Z" fill-rule="nonzero" fill="#000000"></path><path d="M448.85962 447.85797L450.04712 447.7486Q450.18774 448.63922 450.67212 449.07672Q451.1565 449.51422 451.844 449.51422Q452.67212 449.51422 453.24243 448.88922Q453.81274 448.26422 453.81274 447.2486Q453.81274 446.26422 453.26587 445.70172Q452.719 445.13922 451.82837 445.13922Q451.26587 445.13922 450.82056 445.38922Q450.37524 445.63922 450.12524 446.02985L449.06274 445.88922L449.95337 441.1236L454.57837 441.1236L454.57837 442.20172L450.87524 442.20172L450.37524 444.70172Q451.20337 444.1236 452.12524 444.1236Q453.344 444.1236 454.17993 444.96735Q455.01587 445.8111 455.01587 447.13922Q455.01587 448.40485 454.2815 449.32672Q453.39087 450.45172 451.844 450.45172Q450.57837 450.45172 449.77368 449.74078Q448.969 449.02985 448.85962 447.85797Z" fill-rule="nonzero" fill="#000000"></path><path d="M13.7837925 228.37392L12.6431675 228.37392L12.6431675 221.09267Q12.2212925 221.48329 11.55723 221.88173Q10.8931675 222.28017 10.3619175 222.46767L10.3619175 221.35829Q11.3150425 220.92079 12.0337925 220.28017Q12.7525425 219.63954 13.0494175 219.03017L13.7837925 219.03017L13.7837925 228.37392Z" fill-rule="nonzero" fill="#000000"></path><path d="M522.9312 434.36896L528.1656 420.7752L530.1031 420.7752L535.6656 434.36896L533.6187 434.36896L532.02496 430.24396L526.33746 430.24396L524.8531 434.36896L522.9312 434.36896ZM526.8531 428.79083L531.46246 428.79083L530.0562 425.00958Q529.39996 423.30646 529.08746 422.19708Q528.82184 423.50958 528.3531 424.79083L526.8531 428.79083Z" fill-rule="nonzero" fill="#000000"></path><path d="M74.62624 263.4553L74.62624 249.86153L79.73562 249.86153Q81.28249 249.86153 82.227806 250.26778Q83.17312 250.67403 83.70437 251.5334Q84.23562 252.39278 84.23562 253.33028Q84.23562 254.20528 83.76687 254.97871Q83.29812 255.75215 82.32937 256.22092Q83.56374 256.5803 84.227806 257.4553Q84.89187 258.3303 84.89187 259.5178Q84.89187 260.47092 84.49343 261.29123Q84.09499 262.11154 83.50124 262.55685Q82.90749 263.00217 82.009056 263.22873Q81.11062 263.4553 79.81374 263.4553L74.62624 263.4553ZM76.42312 255.56465L79.36062 255.56465Q80.56374 255.56465 81.07937 255.4084Q81.76687 255.20528 82.11843 254.73653Q82.46999 254.26778 82.46999 253.54903Q82.46999 252.87715 82.14187 252.36153Q81.81374 251.8459 81.21218 251.65059Q80.61062 251.45528 79.14187 251.45528L76.42312 251.45528L76.42312 255.56465ZM76.42312 261.84592L79.81374 261.84592Q80.68874 261.84592 81.03249 261.78342Q81.65749 261.67404 82.07937 261.41623Q82.50124 261.15842 82.76687 260.65842Q83.03249 260.15842 83.03249 259.5178Q83.03249 258.75217 82.64187 258.18967Q82.25124 257.62717 81.56374 257.4006Q80.87624 257.17404 79.57937 257.17404L76.42312 257.17404L76.42312 261.84592Z" fill-rule="nonzero" fill="#000000"></path><path d="M432.85962 391.84235L434.00024 391.6861Q434.20337 392.65485 434.67212 393.08453Q435.14087 393.51422 435.82837 393.51422Q436.62524 393.51422 437.17993 392.95953Q437.73462 392.40485 437.73462 391.57672Q437.73462 390.77985 437.2268 390.27203Q436.719 389.76422 435.92212 389.76422Q435.594 389.76422 435.10962 389.88922L435.23462 388.88922Q435.35962 388.90485 435.42212 388.90485Q436.1565 388.90485 436.74243 388.52203Q437.32837 388.13922 437.32837 387.34235Q437.32837 386.71735 436.89868 386.30328Q436.469 385.88922 435.79712 385.88922Q435.12524 385.88922 434.68774 386.3111Q434.25024 386.73297 434.10962 387.5611L432.969 387.35797Q433.18774 386.21735 433.92993 385.58453Q434.67212 384.95172 435.76587 384.95172Q436.5315 384.95172 437.17212 385.27985Q437.81274 385.60797 438.1565 386.17047Q438.50024 386.73297 438.50024 387.3736Q438.50024 387.96735 438.17212 388.46735Q437.844 388.96735 437.219 389.2486Q438.0315 389.45172 438.49243 390.04547Q438.95337 390.63922 438.95337 391.54547Q438.95337 392.76422 438.06274 393.61578Q437.17212 394.46735 435.81274 394.46735Q434.594 394.46735 433.7815 393.73297Q432.969 392.9986 432.85962 391.84235Z" fill-rule="nonzero" fill="#000000"></path><path d="M444.51587 410.29547L444.51587 408.0611L440.48462 408.0611L440.48462 407.01422L444.719 400.98297L445.6565 400.98297L445.6565 407.01422L446.92212 407.01422L446.92212 408.0611L445.6565 408.0611L445.6565 410.29547L444.51587 410.29547ZM444.51587 407.01422L444.51587 402.82672L441.594 407.01422L444.51587 407.01422Z" fill-rule="nonzero" fill="#000000"></path><path d="M530.6096 525.2486Q529.9065 524.983 529.56274 524.5064Q529.219 524.02985 529.219 523.358Q529.219 522.34235 529.94556 521.64703Q530.6721 520.9517 531.89087 520.9517Q533.1096 520.9517 533.8518 521.66266Q534.594 522.3736 534.594 523.3892Q534.594 524.02985 534.25024 524.5064Q533.9065 524.983 533.219 525.2486Q534.07837 525.52985 534.5237 526.15485Q534.969 526.77985 534.969 527.6392Q534.969 528.8267 534.12524 529.6392Q533.2815 530.4517 531.9065 530.4517Q530.5315 530.4517 529.68774 529.6392Q528.844 528.8267 528.844 527.608Q528.844 526.7017 529.30493 526.08453Q529.76587 525.46735 530.6096 525.2486ZM530.37524 523.3111Q530.37524 523.96735 530.80493 524.3892Q531.2346 524.8111 531.9065 524.8111Q532.57837 524.8111 533.00024 524.39703Q533.4221 523.983 533.4221 523.3736Q533.4221 522.7486 532.9846 522.3189Q532.5471 521.8892 531.9065 521.8892Q531.25024 521.8892 530.81274 522.3111Q530.37524 522.733 530.37524 523.3111ZM530.01587 527.608Q530.01587 528.09235 530.25024 528.5533Q530.4846 529.0142 530.93774 529.2642Q531.39087 529.5142 531.9221 529.5142Q532.7346 529.5142 533.26587 528.9908Q533.7971 528.46735 533.7971 527.65485Q533.7971 526.8267 533.25024 526.28766Q532.70337 525.7486 531.87524 525.7486Q531.07837 525.7486 530.5471 526.27985Q530.01587 526.8111 530.01587 527.608Z" fill-rule="nonzero" fill="#000000"></path><path d="M502.7815 499.26422L501.64087 499.35797Q501.50024 498.6861 501.219 498.3736Q500.75024 497.88922 500.07837 497.88922Q499.5315 497.88922 499.10962 498.20172Q498.57837 498.59235 498.26587 499.34235Q497.95337 500.09235 497.93774 501.4986Q498.344 500.8736 498.94556 500.5689Q499.54712 500.26422 500.20337 500.26422Q501.344 500.26422 502.14868 501.10016Q502.95337 501.9361 502.95337 503.27985Q502.95337 504.15485 502.57056 504.90485Q502.18774 505.65485 501.5315 506.05328Q500.87524 506.45172 500.0315 506.45172Q498.60962 506.45172 497.70337 505.40485Q496.79712 504.35797 496.79712 501.9361Q496.79712 499.2486 497.79712 498.01422Q498.67212 496.95172 500.14087 496.95172Q501.23462 496.95172 501.93774 497.5689Q502.64087 498.1861 502.7815 499.26422ZM498.10962 503.27985Q498.10962 503.8736 498.35962 504.41266Q498.60962 504.95172 499.06274 505.23297Q499.51587 505.51422 500.01587 505.51422Q500.73462 505.51422 501.25806 504.92828Q501.7815 504.34235 501.7815 503.34235Q501.7815 502.3736 501.26587 501.8189Q500.75024 501.26422 499.969 501.26422Q499.18774 501.26422 498.64868 501.8189Q498.10962 502.3736 498.10962 503.27985Z" fill-rule="nonzero" fill="#000000"></path><path d="M512.9221 506.20172L512.9221 505.10797L518.95337 505.10797L518.95337 505.9986Q518.06274 506.95172 517.18774 508.51422Q516.31274 510.07672 515.844 511.73297Q515.50024 512.90485 515.4065 514.2955L514.2346 514.2955Q514.25024 513.2017 514.6643 511.64703Q515.07837 510.09235 515.844 508.64703Q516.6096 507.20172 517.4846 506.20172L512.9221 506.20172Z" fill-rule="nonzero" fill="#000000"></path><path d="M454.85962 369.20172L454.85962 370.29547L448.70337 370.29547Q448.68774 369.88922 448.844 369.4986Q449.07837 368.8736 449.594 368.26422Q450.10962 367.65485 451.094 366.85797Q452.60962 365.60797 453.14087 364.8814Q453.67212 364.15485 453.67212 363.51422Q453.67212 362.82672 453.18774 362.36578Q452.70337 361.90485 451.92212 361.90485Q451.094 361.90485 450.6018 362.39703Q450.10962 362.88922 450.094 363.76422L448.92212 363.63922Q449.04712 362.32672 449.82837 361.63922Q450.60962 360.95172 451.93774 360.95172Q453.2815 360.95172 454.06274 361.6939Q454.844 362.4361 454.844 363.52985Q454.844 364.09235 454.61743 364.6314Q454.39087 365.17047 453.85962 365.77203Q453.32837 366.3736 452.094 367.40485Q451.06274 368.26422 450.77368 368.57672Q450.48462 368.88922 450.29712 369.20172L454.85962 369.20172Z" fill-rule="nonzero" fill="#000000"></path><path d="M553.0315 536.1392L554.12524 536.0455Q554.26587 536.8111 554.6565 537.16266Q555.0471 537.5142 555.6721 537.5142Q556.18774 537.5142 556.5862 537.27203Q556.9846 537.02985 557.24243 536.6314Q557.50024 536.233 557.6643 535.5455Q557.82837 534.858 557.82837 534.1392Q557.82837 534.0611 557.82837 533.9205Q557.4846 534.46735 556.89087 534.8033Q556.2971 535.1392 555.6096 535.1392Q554.45337 535.1392 553.6565 534.3033Q552.8596 533.46735 552.8596 532.09235Q552.8596 530.6705 553.68774 529.8111Q554.51587 528.9517 555.7815 528.9517Q556.68774 528.9517 557.43774 529.4439Q558.18774 529.9361 558.57837 530.83453Q558.969 531.733 558.969 533.4517Q558.969 535.233 558.5862 536.28766Q558.20337 537.34235 557.43774 537.89703Q556.6721 538.4517 555.64087 538.4517Q554.5471 538.4517 553.8518 537.85016Q553.1565 537.2486 553.0315 536.1392ZM557.70337 532.02985Q557.70337 531.0455 557.17993 530.47516Q556.6565 529.90485 555.9221 529.90485Q555.1565 529.90485 554.594 530.52203Q554.0315 531.1392 554.0315 532.1392Q554.0315 533.0142 554.56274 533.5689Q555.094 534.1236 555.89087 534.1236Q556.68774 534.1236 557.19556 533.5689Q557.70337 533.0142 557.70337 532.02985Z" fill-rule="nonzero" fill="#000000"></path><path d="M625.45337 426.29547L624.31274 426.29547L624.31274 419.01422Q623.89087 419.40485 623.2268 419.80328Q622.56274 420.20172 622.0315 420.38922L622.0315 419.27985Q622.9846 418.84235 623.70337 418.20172Q624.4221 417.5611 624.719 416.95172L625.45337 416.95172L625.45337 426.29547ZM628.57837 421.70172Q628.57837 420.0611 628.9143 419.05328Q629.25024 418.04547 629.9221 417.4986Q630.594 416.95172 631.6096 416.95172Q632.3596 416.95172 632.9221 417.2564Q633.4846 417.5611 633.8518 418.1236Q634.219 418.6861 634.42993 419.5064Q634.64087 420.32672 634.64087 421.70172Q634.64087 423.34235 634.30493 424.35016Q633.969 425.35797 633.2971 425.90485Q632.62524 426.45172 631.6096 426.45172Q630.26587 426.45172 629.4846 425.48297Q628.57837 424.32672 628.57837 421.70172ZM629.75024 421.70172Q629.75024 423.9986 630.2815 424.7564Q630.81274 425.51422 631.6096 425.51422Q632.39087 425.51422 632.92993 424.7564Q633.469 423.9986 633.469 421.70172Q633.469 419.40485 632.92993 418.65485Q632.39087 417.90485 631.594 417.90485Q630.81274 417.90485 630.32837 418.5611Q629.75024 419.42047 629.75024 421.70172Z" fill-rule="nonzero" fill="#000000"></path></svg>

